<svg version="1" xmlns="http://www.w3.org/2000/svg" width="933.333" height="933.333" viewBox="0 0 700.000000 700.000000"><path d="M330.2 88c-15.5 1.2-33.9 4.5-49 8.6-6.9 1.9-12.8 3.7-13.1 4-.7.6 51.8-.2 74.9-1.2 8.4-.4 21-.1 30 .6 8.5.6 25.4 1 37.5.8l22-.3-11.5-3.2c-29.3-8.2-61.9-11.5-90.8-9.3zM115 160.7v45.8l5.5-8.2 5.5-8.2V127h447v62.1l5.1 7.7c2.9 4.2 5.6 8.1 6 8.6.5.6.9-19 .9-44.7V115H115v45.7z"/><path d="M187 144.1c-48.2 38.6-80.6 90.7-93.9 150.4-4.2 19.1-5.5 32-5.4 56 0 18.5.4 25.8 2.2 37.4 8.7 57.1 33.4 106.3 73.6 146.7 7.7 7.8 17.5 16.9 21.8 20.3l7.8 6.1h20.2l-7.9-5.6c-55.7-39.8-91.3-96.6-103.5-165.1-3-16.7-3.7-49.8-1.5-68.7 6.5-55.9 30.2-105.7 69.5-145.9 13.1-13.4 25.3-23.9 38-32.6l7.5-5.1h-10.5l-10.4.1-7.5 6zM492.1 143.2c26.3 18.4 49.5 42 66.9 68.1 60.9 91.2 55.3 210.6-13.9 296.4-13.7 17-37.3 38.7-56.1 51.5-2.4 1.6-2.2 1.7 7.5 1.7l10.1.1 8.4-6.7c10.6-8.3 30.4-28.1 39.4-39.3 22.9-28.7 41.4-65.6 50.2-100.2 12.9-51 10-105.9-8.1-155.4-5.3-14.7-18.3-40.3-27-53.4-14.9-22.3-34.5-44-54.6-60.3l-9.6-7.7h-20.6l7.4 5.2z"/><path d="M573.2 350v84.5l3.5-10.5c1.9-5.8 4.6-15.2 5.9-21 2.3-10.2 2.4-11.8 2.4-53s-.1-42.8-2.4-53c-1.3-5.8-4-15.2-5.9-21l-3.5-10.5V350zM122.8 277c-7.5 23.4-7.1 19.9-7.5 70.1-.4 50.7-.4 51.5 6.9 74.1l3.3 10.3.3-40.7c.1-22.5.1-59.1 0-81.5l-.3-40.8-2.7 8.5zM115 539.3V585h470v-45.7c0-25.1-.2-45.4-.4-45.2-.2.2-2.9 4.1-6 8.7l-5.6 8.3V574l-223.2-.2-223.3-.3-.3-31.8-.2-31.8-5.5-8.2-5.5-8.2v45.8zM267.5 599.6c8.2 3.1 30.8 8.4 44.6 10.5 11.3 1.7 19.1 2.2 36.4 2.3 29.8.1 47.5-2.4 75-10.2l13-3.7-21-.3c-13.2-.2-25.3.1-32.5 1-14.5 1.6-55.9 1.7-65.7 0-4.3-.7-16.5-1.2-30.5-1.1-21.8 0-23 .1-19.3 1.5z"/></svg>